<svg width="750" height="750" viewBox="0 0 750 750" fill="none" xmlns="http://www.w3.org/2000/svg">
<path fill-rule="evenodd" clip-rule="evenodd" d="M332.808 626.428C303.621 641.052 269.403 642.242 237.024 638.078C174.34 630.016 111.038 599.627 79.8703 544.647C66.4261 520.931 59.636 494.04 54.9054 467.192C48.5876 431.337 46.0354 392.791 61.9115 360.027C75.2954 332.406 100.133 312.307 124.879 294.15C150.814 275.12 178.909 256.619 210.851 252.816C302.993 250.991 293.659 285.604 389.887 230.553C417.861 214.549 501.031 242.02 529.132 250.991C557.233 259.961 612.686 287.636 650.292 320.511C666.011 334.253 680.51 349.98 689.345 368.898C702.572 397.223 701.93 430.22 695.759 460.866C689.534 491.777 676.019 523.927 648.567 539.44C636.164 546.449 621.863 549.455 607.664 550.605C548.363 555.409 485.283 530.092 431.017 554.48C393.867 571.175 369.222 608.184 332.808 626.428Z" fill="#3B82F6"/>
<path fill-rule="evenodd" clip-rule="evenodd" d="M110.458 371.989C121.601 361.014 132.073 349.697 139.122 339.834C148.823 326.257 163.048 313.348 179.904 310.858C199.56 307.953 217.613 321.505 231.901 335.313C251.641 354.388 269.357 375.557 284.655 398.35C278.518 399.149 265.295 408.302 247.722 408.012C237.378 407.841 225.019 398.622 213.073 398.007C204.775 397.579 195.717 406.264 187.362 405.602C172.753 404.444 159.089 393.688 146.765 391.742C139.424 390.583 129.516 397.881 123.872 396.417C108.363 392.394 103.767 378.58 110.458 371.989Z" fill="white"/>
<path fill-rule="evenodd" clip-rule="evenodd" d="M444.598 542.754C492.757 526.875 544.943 545.278 595.648 544.598C618.112 544.297 642.125 539.34 657.59 523.043C623.717 503.1 598.007 471.385 579.28 436.825C560.552 402.266 548.24 364.668 536.028 327.306C519.96 318.144 499.278 333.638 481.641 328.066C472.629 325.218 461.865 317.483 455.398 324.376C451.494 328.536 444.223 326.089 440.425 321.83C436.628 317.572 434.513 311.912 430.231 308.142C425.949 304.371 417.822 303.896 415.643 309.169C411.871 318.297 407.895 327.725 400.663 334.451C393.431 341.177 381.965 344.424 373.494 339.345C366.878 335.378 363.755 327.658 359.901 320.975C356.047 314.292 354.543 308.283 346.879 309.169C320.991 363.713 301.664 417.332 269.816 468.625C256.131 490.666 179.562 574.687 135.071 563.859C90.5804 553.03 93.8813 544.598 78.8567 531.283C94.5074 563.124 122.155 588.176 153.723 604.369C185.292 620.562 220.649 628.348 256.017 631.16C269.973 632.27 284.127 632.619 297.864 629.92C354.161 618.855 390.11 560.72 444.598 542.754Z" fill="white"/>
<path fill-rule="evenodd" clip-rule="evenodd" d="M396.319 330.011C401.252 323.637 404.335 315.969 409.418 309.714C414.501 303.459 422.755 298.611 430.444 301.026C437.6 303.274 441.536 310.741 444.727 317.529C446.329 320.937 451.198 321.2 454.707 319.834C458.216 318.467 461.371 315.996 465.115 315.588C472.861 314.742 478.695 322.766 486.264 324.614C497.528 327.363 508.851 315.868 519.983 319.112C524.693 320.485 528.771 324.423 533.666 324.087C524.251 301.519 517.16 278.019 507.275 255.653C497.391 233.287 484.355 211.7 465.377 196.28C463.426 194.694 461.29 193.124 458.796 192.806C456.302 192.488 453.413 193.905 452.976 196.381C451.677 203.742 450.377 211.103 449.078 218.464C448.435 222.108 446.736 226.683 443.036 226.614C440.571 226.568 438.678 224.151 438.339 221.709C437.999 219.266 438.818 216.828 439.624 214.498C442.151 207.197 444.678 199.897 447.205 192.596C429.868 198.852 414.84 210.464 402.383 224.049C389.926 237.633 379.851 253.203 370.195 268.902C361.927 282.344 353.918 295.945 346.173 309.695C356.559 308.221 365.605 316.749 371.481 325.439C374.997 330.638 379.184 336.832 385.46 336.809C389.885 336.793 393.61 333.51 396.319 330.011Z" fill="white"/>
<path fill-rule="evenodd" clip-rule="evenodd" d="M237.024 638.078C269.403 642.242 303.621 641.052 332.808 626.428C350.354 617.637 365.167 604.49 379.963 591.358C395.875 577.236 411.767 563.131 431.017 554.48C464.734 539.327 501.853 543.363 539.354 547.44C562.21 549.924 585.208 552.425 607.664 550.605C621.863 549.455 636.164 546.449 648.567 539.44C676.019 523.927 689.534 491.777 695.759 460.866C701.93 430.22 699.991 422.067 691.108 419.135C682.322 407.501 673.362 395.692 661.61 387.065C649.857 378.437 634.697 373.29 620.533 376.741C602.986 381.016 591.081 396.904 581.164 411.999C599.107 395.164 623.61 377.076 645.945 387.393C662.61 395.092 677.122 411.15 688.06 423.252C689.419 424.757 690.724 426.2 691.97 427.558C691.97 451.105 680.696 492.308 660.926 518.046C618.216 491.369 589.323 447.111 568.968 401.051C558.01 376.255 549.148 350.625 540.284 324.99C532.683 303.006 525.08 281.018 516.154 259.552C503.133 228.239 485.393 196.132 455.018 181.052C434.681 187.542 400.646 210.281 388.023 227.497C357.849 268.649 334.239 313.953 310.614 359.287C291.246 396.451 271.867 433.636 248.853 468.57C231.437 495.005 211.151 520.811 183.413 536.068C155.675 551.325 118.917 553.804 93.5948 534.805C63.2774 512.058 59.0404 468.9 58.4451 431.003C58.3935 427.72 58.6425 423.855 61.3968 422.067C98.0157 398.299 130.118 367.598 155.495 332.076C166.143 317.172 188.909 315.812 205.303 323.98C221.466 332.034 232.941 346.89 243.992 361.197L244.466 361.81C255.664 376.304 267.797 391.188 284.655 398.35C269.357 375.557 251.641 354.388 231.901 335.313C217.613 321.505 199.56 307.954 179.904 310.858C163.048 313.348 148.823 326.257 139.122 339.834C120.231 366.269 76.7381 403.148 61.6841 415.913L61.6838 415.914C58.7049 418.44 56.8397 420.021 56.499 420.391C48.0451 429.562 51.5639 448.842 54.2095 463.337L54.2096 463.337C54.4522 464.666 54.6874 465.955 54.9054 467.192C59.636 494.04 66.4261 520.931 79.8704 544.647C111.039 599.627 174.34 630.016 237.024 638.078ZM444.598 542.754C475.483 532.571 508.023 536.486 540.767 540.427C559.082 542.63 577.46 544.842 595.648 544.598C618.112 544.297 642.125 539.34 657.59 523.043C623.717 503.1 598.007 471.385 579.28 436.825C560.552 402.266 548.24 364.668 536.028 327.306C527.402 322.388 517.446 324.575 507.346 326.794C498.632 328.708 489.81 330.646 481.641 328.066C479.438 327.37 477.13 326.381 474.806 325.386C467.623 322.311 460.284 319.168 455.398 324.376C451.494 328.536 444.223 326.089 440.425 321.83C438.781 319.986 437.452 317.879 436.125 315.776L436.125 315.776C434.389 313.023 432.658 310.279 430.231 308.142C425.949 304.371 417.822 303.896 415.643 309.169C411.871 318.297 407.895 327.725 400.663 334.451C393.431 341.177 381.965 344.424 373.494 339.345C368.132 336.13 365.064 330.449 362.042 324.854C361.335 323.545 360.631 322.241 359.901 320.975C356.047 314.292 349.663 307.61 341.999 308.496C316.111 363.039 287.152 416.125 255.305 467.418C241.619 489.459 227.135 511.48 207.534 528.477C187.934 545.475 162.338 557.101 136.502 554.737C115.653 552.829 96.7146 542.211 78.8567 531.283C94.5074 563.124 122.155 588.176 153.723 604.369C185.292 620.562 220.649 628.348 256.017 631.16C269.973 632.27 284.127 632.619 297.864 629.92C327.999 623.997 352.303 604.588 376.741 585.072C397.958 568.128 419.276 551.103 444.598 542.754ZM401.568 316.241C399.627 319.596 397.686 322.952 395.319 326.011C392.61 329.51 388.885 332.793 384.46 332.809C378.186 332.832 374.001 326.643 370.486 321.445L370.481 321.439C364.605 312.749 355.559 304.221 345.173 305.695C352.918 291.945 360.927 278.344 369.195 264.902C378.851 249.203 388.926 233.633 401.383 220.049C413.84 206.464 440.425 186.575 457.796 188.806C474.972 191.012 496.443 230.566 506.327 252.932C511.804 265.324 516.407 277.671 521.025 290.058C524.741 300.027 528.468 310.023 532.666 320.087C529.637 320.295 526.921 318.866 524.175 317.422C522.483 316.532 520.779 315.635 518.983 315.112C513.331 313.465 507.631 315.617 501.913 317.776C496.369 319.869 490.81 321.967 485.264 320.614C482.09 319.839 479.22 317.978 476.387 316.14C472.465 313.596 468.612 311.097 464.115 311.588C461.69 311.852 459.513 312.982 457.326 314.117C456.136 314.734 454.944 315.352 453.707 315.834C450.198 317.2 445.329 316.937 443.727 313.529C440.536 306.741 436.6 299.274 429.444 297.026C421.755 294.611 413.501 299.459 408.418 305.714C405.774 308.968 403.671 312.604 401.568 316.241Z" fill="#00160A"/>
<path fill-rule="evenodd" clip-rule="evenodd" d="M329.99 149.473C338.445 152.977 345.162 160.474 347.743 169.252L347.873 169.708C348.059 170.38 348.209 170.991 348.417 171.919L348.88 174.024C349.659 177.519 350.185 179.214 351.241 181.195C353.517 185.468 358.088 188.194 362.255 187.057L362.505 186.984C368.951 184.975 376.511 189.679 381.716 197.702C384.133 201.428 384.83 210.091 382.92 217.491C380.612 226.433 375.195 232.24 366.874 233.096L365.942 233.189C358.279 233.927 350.657 234.015 334.939 233.717L323.462 233.482C311.625 233.258 304.158 233.279 297.109 233.663L294.344 233.833C292.37 233.965 290.489 234.113 287.414 234.372L278.94 235.085C260.585 236.531 249.425 235.838 238.776 231.356L238.306 231.156C237.416 230.771 236.527 230.359 235.361 229.794L232.727 228.506C225.921 225.206 222.508 224.105 217.962 224.344C214.854 224.507 212.53 225.231 207.71 227.241L205.578 228.129C204.734 228.475 204.145 228.703 203.471 228.948C199.212 230.491 194.68 231.28 190.151 231.267C186.64 231.256 183.934 230.71 181.808 229.407C179.422 227.945 177.957 225.334 178.305 223.014C178.624 220.891 180.253 218.994 183.182 216.949C194.814 208.825 209.356 205.622 230.014 205.087L230.855 205.067C241.453 204.831 246.817 203.572 250.694 198.671C251.793 197.282 252.439 196.038 253.488 193.508L254.3 191.535C254.711 190.559 255.002 189.939 255.362 189.276C259.385 181.876 268.053 178.344 281.356 177.004L282.559 176.889C290.529 176.179 295.379 174.33 297.19 169.539L297.288 169.27C301.441 157.293 309.529 148.588 319.064 147.62C322.391 147.283 325.95 147.878 329.505 149.277L329.99 149.473Z" fill="white"/>
<path fill-rule="evenodd" clip-rule="evenodd" d="M664.983 207.913C666.503 209.803 667.151 211.582 668.075 215.711L668.368 217.02C669.342 221.287 670.117 223.318 671.954 225.599C673.439 227.443 678.63 230.258 683.11 231.646L683.521 231.769C684.592 232.078 685.491 232.235 687.062 232.414L689.131 232.636C691.771 232.949 692.203 233.324 692.203 234.933C692.203 236.89 690.786 237.711 687.215 238.066L686.303 238.144L684.019 238.299C683.909 238.308 683.806 238.316 683.706 238.325L683.41 238.352C630.231 243.462 576.666 244.546 523.324 241.59C522.715 241.556 522.213 240.227 522.704 239.319C523.258 238.296 524.356 237.603 526.556 236.742C543.731 230.023 562.479 227.358 580.846 229.017L583.092 229.239L584.949 229.429C585.383 229.472 585.742 229.504 586.139 229.537C588.968 229.772 591.173 229.77 593.328 229.444C597.813 228.767 601.695 226.485 603.577 222.969C606.733 217.071 609.54 213.461 613.275 211.208C617.681 208.549 623.398 208.709 626.47 211.805L626.649 211.99C626.797 212.148 626.946 212.317 627.129 212.536L627.705 213.242C628.992 214.842 629.677 215.543 630.812 216.178C633.606 217.741 637.244 217.033 640.121 214.862C641.178 214.064 641.953 213.313 643.235 211.89L644.835 210.093C645.299 209.579 645.628 209.234 646.008 208.86C651.497 203.47 660.871 202.801 664.983 207.913Z" fill="white"/>
<path d="M453.5 224L442.5 228L437 223.5V215.5L441.5 203L443.5 195L446 193L446.75 192.75C447.249 192.584 447.763 192.471 448.286 192.413L450.806 192.133C451.601 192.044 452.401 192.027 453.198 192.08L458.083 192.406C459.015 192.468 459.922 192.741 460.733 193.205C462.054 193.96 462.666 195.537 462.2 196.985L453.5 224Z" fill="white"/>
</svg>
